<svg width="22" height="22" viewBox="0 0 22 22" fill="none" xmlns="http://www.w3.org/2000/svg">
<path d="M0 11.333C0 11.333 0 11.333 0 11.333C0 13.4427 0.625609 15.5051 1.79771 17.2593C2.96982 19.0134 4.63578 20.3807 6.58492 21.188C8.53405 21.9954 10.6788 22.2066 12.748 21.795C14.8172 21.3834 16.7179 20.3675 18.2097 18.8757C19.7015 17.3839 20.7174 15.4832 21.129 13.414C21.5406 11.3448 21.3294 9.20005 20.522 7.25091C19.7147 5.30177 18.3474 3.63581 16.5933 2.46371C14.8391 1.2916 12.7767 0.665995 10.667 0.665995C7.83826 0.667055 5.12568 1.79123 3.12546 3.79146C1.12524 5.79168 0.00106015 8.50426 0 11.333C0 11.333 0 11.333 0 11.333ZM12.0063 8.93884C13.3284 10.2611 13.3283 12.4047 12.0061 13.7269L10.3575 15.3755C9.93976 15.7932 9.26194 15.7915 8.84627 15.3717C8.43352 14.9548 8.43519 14.2828 8.85001 13.868L9.73854 12.9795C10.6479 12.0701 10.648 10.5958 9.73879 9.68628L8.8498 8.79702C8.43508 8.38217 8.43346 7.71021 8.84617 7.29336C9.26188 6.8735 9.93978 6.87185 10.3575 7.28968L12.0063 8.93884Z" fill="#18EDD8"/>
</svg>
